<svg width="46" height="46" viewBox="0 0 46 46" fill="none" xmlns="http://www.w3.org/2000/svg">
<g id="fi-rr-home" clip-path="url(#clip0_2_50)" filter="url(#filter0_d_2_50)">
<path id="Vector" d="M34.1212 16.0689L26.5362 8.48293C25.5975 7.54692 24.3259 7.0213 23.0002 7.0213C21.6746 7.0213 20.403 7.54692 19.4642 8.48293L11.8792 16.0689C11.5997 16.3467 11.378 16.6772 11.2271 17.0413C11.0762 17.4054 10.9991 17.7958 11.0002 18.1899V28.0069C11.0002 28.8026 11.3163 29.5656 11.8789 30.1282C12.4415 30.6909 13.2046 31.0069 14.0002 31.0069H32.0002C32.7959 31.0069 33.5589 30.6909 34.1215 30.1282C34.6842 29.5656 35.0002 28.8026 35.0002 28.0069V18.1899C35.0014 17.7958 34.9242 17.4054 34.7733 17.0413C34.6225 16.6772 34.4008 16.3467 34.1212 16.0689ZM26.0002 29.0069H20.0002V25.0729C20.0002 24.2773 20.3163 23.5142 20.8789 22.9516C21.4415 22.389 22.2046 22.0729 23.0002 22.0729C23.7959 22.0729 24.5589 22.389 25.1215 22.9516C25.6842 23.5142 26.0002 24.2773 26.0002 25.0729V29.0069ZM33.0002 28.0069C33.0002 28.2721 32.8949 28.5265 32.7073 28.714C32.5198 28.9016 32.2654 29.0069 32.0002 29.0069H28.0002V25.0729C28.0002 23.7468 27.4734 22.4751 26.5358 21.5374C25.5981 20.5997 24.3263 20.0729 23.0002 20.0729C21.6741 20.0729 20.4024 20.5997 19.4647 21.5374C18.527 22.4751 18.0002 23.7468 18.0002 25.0729V29.0069H14.0002C13.735 29.0069 13.4807 28.9016 13.2931 28.714C13.1056 28.5265 13.0002 28.2721 13.0002 28.0069V18.1899C13.0012 17.9249 13.1064 17.6709 13.2932 17.4829L20.8782 9.89993C21.4419 9.33886 22.2049 9.02387 23.0002 9.02387C23.7956 9.02387 24.5585 9.33886 25.1222 9.89993L32.7072 17.4859C32.8933 17.6732 32.9985 17.9259 33.0002 18.1899V28.0069Z" fill="#234F30"/>
</g>
<defs>
<filter id="filter0_d_2_50" x="0" y="0" width="46" height="46" filterUnits="userSpaceOnUse" color-interpolation-filters="sRGB">
<feFlood flood-opacity="0" result="BackgroundImageFix"/>
<feColorMatrix in="SourceAlpha" type="matrix" values="0 0 0 0 0 0 0 0 0 0 0 0 0 0 0 0 0 0 127 0" result="hardAlpha"/>
<feOffset dy="4"/>
<feGaussianBlur stdDeviation="5.5"/>
<feComposite in2="hardAlpha" operator="out"/>
<feColorMatrix type="matrix" values="0 0 0 0 0.137255 0 0 0 0 0.309804 0 0 0 0 0.188235 0 0 0 0.3 0"/>
<feBlend mode="normal" in2="BackgroundImageFix" result="effect1_dropShadow_2_50"/>
<feBlend mode="normal" in="SourceGraphic" in2="effect1_dropShadow_2_50" result="shape"/>
</filter>
<clipPath id="clip0_2_50">
<rect width="24" height="24" fill="white" transform="translate(11 7)"/>
</clipPath>
</defs>
</svg>
