<svg width="159" height="80" viewBox="0 0 159 80" fill="none" xmlns="http://www.w3.org/2000/svg">
<path id="Vector 3" opacity="0.5" d="M12.3612 14.1679C3.43268 11.8813 2.43969 1.75821 -6.63877 0.16789C-26.8329 -3.3696 -22.6388 50.1679 -22.6388 50.1679L6.36123 86.6679C19.6946 88.8346 70.5612 88.4679 167.361 69.6679C264.161 50.8679 197.361 27.1679 151.861 17.6679C106.361 8.16789 135.721 21.7341 125.361 20.6679C113.811 19.4792 108.942 11.5041 97.3612 10.6679C82.8079 9.61711 75.8649 22.2633 61.3612 20.6679C50.9091 19.5182 46.8198 11.7575 36.3612 10.6679C26.9405 9.68639 21.5368 16.5178 12.3612 14.1679Z" fill="url(#paint0_linear_2_64)"/>
<defs>
<linearGradient id="paint0_linear_2_64" x1="96.9966" y1="0" x2="96.9966" y2="87.5705" gradientUnits="userSpaceOnUse">
<stop stop-color="#2CAD5E"/>
<stop offset="1" stop-color="#71DA99"/>
</linearGradient>
</defs>
</svg>
